<?xml version="1.0" encoding="utf-8"?>
<!-- Generator: Adobe Illustrator 21.0.0, SVG Export Plug-In . SVG Version: 6.00 Build 0)  -->
<svg version="1.1" id="Layer_1" xmlns="http://www.w3.org/2000/svg" xmlns:xlink="http://www.w3.org/1999/xlink" x="0px" y="0px"
	 viewBox="0 0 100 100" style="enable-background:new 0 0 100 100;" xml:space="preserve">
<style type="text/css">
	.st0{fill:#6C2937;}
</style>
<g>
	<path class="st0" d="M76.2,51.9c-2.9-6.6-7.4-12.3-14.7-14.2c3.5-1.9,7.8-5.5,7.5-9.9c-0.1-1.3-0.5-2.5-0.6-3.7
		c-0.1-1.3,1.8-9.1,0.6-9.8c-1.2-0.7-3.8-0.8-5.2-0.9c-2.2-0.1-3.7,0.9-5.5,2c-4.1,2.7-6.2-1.9-8.1-4.8c-1.1-1.6-3.8,1.2-4.8,1.8
		C44,13,42.5,13.5,41,12.8c-0.8-0.4-1.5-1.1-2.1-1.7c-0.6-0.6-1.3-2-2.2-1.9c-2.4,0.1-2.1,3.3-2.1,4.8c0.1,2.8,0,5.7-0.3,8.5
		c-0.2,2.4-0.7,4.9,0,7.3c1.1,4.2,4.8,7.1,8.5,8.8c-9.7,3.4-15.5,10.9-18.7,20.4C21.6,66.3,20.3,74.3,19,82c-0.2,1.4-0.5,3-0.2,4.5
		c0.4,2,3.6,2.2,5.2,2.4c6,0.8,12.2,1.3,18.3,1.8c6.2,0.4,28.3,0.2,34.4-2.2c2.3-0.9,4.2-1.8,4.5-4.4C81.8,80.2,79.7,59.9,76.2,51.9
		z M38.5,29.8c-1.3-2.6-0.7-6.7-0.4-8.5c0.1-0.4,0.2-0.8,0.2-1.2c0.2-1.2,0.2-2.4,0.2-3.5c3,2.2,6.8-0.1,9.4-2
		c1.3,2.1,3.3,5.8,6.2,5.9c1.4,0,3.2-0.8,4.4-1.5c0.8-0.4,1.6-0.9,2.3-1.5c0,0,0.7-0.6,0.5-0.6c1.4,0,3.1,0.6,4.5,0.8
		c-0.3,2.2-1.3,4.5-1.1,6.8c0.2,2.2,0.6,4.1-0.4,6.2c-1.7,3.7-6.1,5.2-9.8,5.5c1.7-1.2,3.3-3.3,3.8-5.4c0.3-1,0.5-2,0.3-3.1
		c-0.4-1.9-1.4-0.2-1.7,0.7c-0.6,1.8-1.7,3.6-2.8,5.1c-0.5,0.8-1.5,2.8-2.5,2.7c-0.4,0-0.8,0-1.2-0.1c-0.2-0.6-0.5-1.2-0.7-1.9
		c-0.4-0.9-0.6-1.9-1-2.9c-1-2-1.5-4.9-2-7.1c-0.2-1.2-0.4-2.3-0.7-3.5c-0.4-1.9-1.3-0.7-1.4,0.5c-0.3,2.6,0.2,5.3,0.9,7.7
		c0.3,1,0.5,2.1,1.1,3c0.4,0.9,0.8,1.8,1.3,2.6c0.1,0.2,0.9,1,0.9,1.3C44.8,35.3,40.4,33.5,38.5,29.8z M49.2,41
		c4.1-0.5,8.6-0.6,12.5,1c6.2,2.4,10.2,9.1,12.6,15.6c0.2,0.8,0.4,1.7,0.6,2.5c-2.8-2.5-6.7-4.1-10.1-5.7c-2.4-1.2-4.8-2.1-7.3-3.1
		c-2.5-1-4.9-2.1-7.4-3.1c-4.1-1.6-9-3.3-13.4-2.8C40.4,42.8,44.8,41.5,49.2,41z M34.9,46.8c-0.2,0.1,0-0.1,1.1-0.9
		c1,0.5,2.4,0.5,3.5,0.7c1.4,0.3,2.7,0.8,4.1,1.3c2.5,0.9,5.1,2,7.5,3c2.8,1.2,5.5,2.4,8.3,3.6c3.5,1.4,7,2.8,10.4,4.4
		c1.1,0.5,2.3,1,3.4,1.5c0.7,0.3,1.3,0.7,2,0.9c0.2,1,0.4,1.9,0.6,2.9c0.7,3.6,1.1,7.3,1.6,10.9c-2-1.2-4.7-1.7-6.9-2.4
		c-2.1-0.7-4.1-1.5-6.2-2.2c-3.7-1.3-7.5-2.8-11-4.4c-3.5-1.6-7.1-3.1-10.5-4.8c-2.5-1.2-5.1-2.5-7.6-3.8c-1.7-0.9-3.8-2.5-5.7-2.8
		C30.7,51.6,32.5,48.9,34.9,46.8z M38.4,86.6c-3-0.3-6.1-0.7-9.1-1c-1.5-0.2-3-0.3-4.6-0.5c-0.7-0.1-1.7,0.1-2.1-0.6
		c-0.7-1.3-0.2-3.5,0-4.9c0.4-2.7,1.1-5.4,1.8-8.1c0.2,1.1,2.8,2.5,3.7,3c2,1.2,4,2.5,6,3.7c3.3,2,6.9,3.7,10.4,5.1
		c3.8,1.6,7.6,2.9,11.6,4.1C50.3,87.5,44.3,87.2,38.4,86.6z M77.1,84.7c0.4-0.9-0.2-5.8-2.2-4.4c-0.8,0.6,0.2,4.6,0.8,5.2
		c-0.8,0.3-1.6,0.4-2.5,0.5c0.4-0.9,0.4-6.4-1.8-5.3c-0.8,0.4-0.3,1.9-0.2,2.6c0.1,0.6,0.1,1.1,0.1,1.7c0,0.4,0.1,0.8,0,1.2
		c-0.6,0.1-1.1,0.1-1.7,0.1c0.2-1,0.1-2.2-0.9-2.8c-1.7-1-1.4,2.3-1.3,3c-0.6,0-1.1,0.1-1.7,0.1c0.1-1-1.2-3.9-2.3-2.3
		c-0.3,0.5,0,1.1-0.1,1.6c0,0.3,0.1,0.6,0.1,0.9c-0.8,0.1-1.4,0.2-2.2,0c-4-1.1-7.9-2.7-11.7-4.2c-3.7-1.4-7.3-3-11-4.6
		c-2.8-1.2-5.4-2.7-8.1-4c-0.7-0.3-1.4-0.7-2-1c-0.6-0.3-3.2-2-3.9-1.6c1.5-5.5,3.1-11.1,5-16.5c1.3,1.9,4,3.2,5.9,4.4
		c2.3,1.5,4.7,2.8,7.2,4.1c3.3,1.7,6.7,3.3,10,4.8c3.8,1.8,7.9,3.2,11.8,4.4c1.9,0.6,3.9,1.2,5.9,1.7c2,0.5,5.3,1.9,7.3,1.1
		C78,78.1,78.6,83.1,77.1,84.7z"/>
	<path class="st0" d="M43.7,57.7C43.9,57.5,43.8,57.6,43.7,57.7c1.3-0.7,0.1-2.5-1.1-1.8C41.2,56.6,42.7,58.6,43.7,57.7z"/>
	<path class="st0" d="M49.4,54.9c1.5-0.2,1-2.2-0.3-2.4C47.6,52.3,47.8,55.1,49.4,54.9z"/>
	<path class="st0" d="M54.1,57.3c1.3-0.7,0.1-2.5-1.1-1.8C51.6,56.2,52.7,58.1,54.1,57.3z"/>
	<path class="st0" d="M53.8,61.5C53.9,61.5,54.1,61.5,53.8,61.5c-0.8-0.1-1.2,1.5-0.1,1.6C54.9,63.2,54.9,61.6,53.8,61.5z"/>
	<path class="st0" d="M49,60.6C48.8,60.6,48.7,60.7,49,60.6C49.4,60.4,49.2,60.5,49,60.6c1.4-0.6,0.5-2.4-0.8-2.2
		C46.6,58.6,47.5,61.2,49,60.6z"/>
	<path class="st0" d="M36.8,54.7c1.4-0.2,1.1-2.3-0.4-2.1C35.2,52.7,35.5,54.9,36.8,54.7z"/>
	<path class="st0" d="M26.4,79.7c-1.5,0.3-0.9,2.5,0.5,2.2C28.2,81.7,27.8,79.4,26.4,79.7z"/>
	<path class="st0" d="M32.7,81.5c-1.1-0.4-1.6,1.2-0.6,1.6C33,83.5,33.6,81.9,32.7,81.5z"/>
	<path class="st0" d="M70.3,67.1c1.5-0.2,1-2.3-0.5-2.2C68.3,65.1,68.5,67.3,70.3,67.1z"/>
</g>
</svg>
